<svg width="102" height="101" viewBox="0 0 102 101" fill="none" xmlns="http://www.w3.org/2000/svg">
<path d="M14.2941 17.0781C22.4656 8.30087 32.4809 3.17321 44.4 1.67547V8.71607C34.4279 10.1442 26.0371 14.6039 19.287 22.0749C12.2318 29.8835 8.7 39.1922 8.7 49.9241C8.7 54.7639 9.44716 59.3432 10.9513 63.6521C12.3025 67.5228 14.1922 71.0971 16.6179 74.3703L11.4852 79.42C8.50927 75.5354 6.14855 71.2391 4.40289 66.5253C2.47 61.306 1.5 55.7757 1.5 49.9241C1.5 37.1671 5.75987 26.2449 14.2941 17.0781ZM51 98.599C44.9599 98.599 39.269 97.6228 33.9171 95.6787C29.0846 93.9232 24.6953 91.5463 20.7427 88.5487L25.7731 83.5113C29.1119 85.9129 32.7886 87.8159 36.7974 89.2216C41.2595 90.7864 45.997 91.564 51 91.564C56.003 91.564 60.7405 90.7864 65.2026 89.2216C69.2114 87.8159 72.8881 85.9129 76.2269 83.5113L81.2573 88.5487C77.3047 91.5463 72.9154 93.9232 68.0829 95.6787C62.731 97.6228 57.0401 98.599 51 98.599ZM57.6 1.67547C69.5191 3.17321 79.5344 8.30086 87.7059 17.0781C96.2401 26.2449 100.5 37.1671 100.5 49.9241C100.5 55.7757 99.53 61.306 97.5971 66.5253C95.8514 71.2391 93.4907 75.5354 90.5148 79.42L85.3821 74.3703C87.8078 71.0971 89.6975 67.5228 91.0487 63.6521C92.5528 59.3432 93.3 54.7639 93.3 49.9241C93.3 39.1922 89.7682 29.8835 82.713 22.0749C75.9629 14.6039 67.5721 10.1442 57.6 8.71607V1.67547ZM71.1438 49.9241L39.75 69.7793V30.0689L71.1438 49.9241Z" fill="white" stroke="#E6D7C4" stroke-width="3"/>
</svg>
