<svg width="40" height="40" viewBox="0 0 40 40" fill="none" xmlns="http://www.w3.org/2000/svg">
<path d="M20 0.637695C8.94626 0.677106 0 9.37521 0 20.0993C0 28.272 5.19645 35.2696 12.5591 38.1524L12.6931 38.1991C12.4929 36.6621 12.3513 34.3062 12.7533 32.613L15.1016 22.9398C15.1016 22.9398 14.4995 21.7721 14.4995 20.0599C14.4995 17.3552 16.1252 15.3496 18.1529 15.3496C19.8585 15.3496 20.7015 16.5947 20.7015 18.0748C20.7015 19.749 19.5981 22.2392 19.0155 24.5557C18.5338 26.5014 20.0196 28.0778 22.0066 28.0778C25.5788 28.0778 28.3095 24.4389 28.3095 19.1841C28.3095 14.5132 24.8577 11.283 19.9202 11.283C19.8058 11.2771 19.6733 11.2742 19.5394 11.2742C14.7388 11.2742 10.849 15.0474 10.849 19.7008C10.849 19.7038 10.849 19.7067 10.849 19.7096C10.849 21.3838 11.5114 23.1734 12.3348 24.147C12.4959 24.3411 12.5154 24.5163 12.4552 24.7118L11.8937 26.9116C11.8139 27.2619 11.5927 27.3597 11.2314 27.1845C8.70239 26.0358 7.13684 22.5136 7.13684 19.6337C7.13684 13.5031 11.7537 7.87906 20.4245 7.87906C27.3687 7.87906 32.809 12.6667 32.809 19.1082C32.809 25.8226 28.4329 31.2132 22.3724 31.2132C20.3658 31.2132 18.439 30.1812 17.7962 28.9755L16.5317 33.588C15.8829 35.5396 15.0384 37.2343 13.9907 38.7888L14.0418 38.7071C15.8031 39.25 17.8293 39.5639 19.9293 39.5639C31.0146 39.5639 40 30.8497 40 20.1022C40 9.37813 31.0552 0.680025 20.006 0.640614H20.0015L20 0.637695Z" fill="#988D6B"/>
</svg>
