<svg width="40" height="34" viewBox="0 0 40 34" fill="none" xmlns="http://www.w3.org/2000/svg">
<path d="M39.997 4.3036C38.497 5.05649 36.997 5.32221 35.2376 5.56656C36.997 4.54795 38.2375 3.02079 38.737 0.985103C37.2295 1.91361 35.4731 2.62068 33.6026 3.004L33.4976 3.02232C31.9511 1.47379 29.8376 0.508633 27.5037 0.476562H27.4977C23.2377 0.476562 19.4983 4.30513 19.4983 8.88658C19.4983 9.63947 19.4983 10.1495 19.7578 10.6581C12.8908 10.3862 6.82941 7.08912 2.79146 2.04647L2.75847 2.00371C2.12097 3.11242 1.74448 4.4441 1.74448 5.86588C1.74448 6.03234 1.74898 6.1988 1.75948 6.36373L1.75798 6.34082C1.80898 9.20881 3.27146 11.7179 5.46743 13.184L5.49893 13.2038C4.23895 13.2038 2.99846 12.6953 1.73848 12.1852C1.73848 16.2581 4.49844 19.5766 8.2379 20.3295C7.49841 20.5937 6.73792 20.5937 5.99843 20.5937C5.49893 20.5937 4.99794 20.5937 4.49844 20.3295C5.49893 23.648 8.49889 26.1938 12.2578 26.1938C9.55788 28.4158 6.08392 29.7597 2.30247 29.7597C2.19597 29.7597 2.08947 29.7582 1.98298 29.7566H1.99948H0C3.54746 32.0611 7.8539 33.4661 12.4738 33.5638H12.4993C27.4992 33.5638 35.7596 20.8381 35.7596 9.88228V8.86367C37.48 7.65722 38.899 6.13466 39.964 4.36774L40 4.3036H39.997Z" fill="#988D6B"/>
</svg>
