<svg width="40" height="40" viewBox="0 0 40 40" fill="none" xmlns="http://www.w3.org/2000/svg">
<path d="M22.0535 0.557129C25.6548 0.557129 26.4156 0.59656 28.2552 0.673963C30.3755 0.771811 31.837 1.10187 33.0975 1.58965C34.418 2.07597 35.5389 2.75799 36.6388 3.82848C37.7597 4.89897 38.4394 5.98991 38.9601 7.27509C39.4598 8.50184 39.7809 9.92284 39.88 12.0069C39.9805 13.8572 40 14.5772 40 18.4722V21.5873C40 25.4822 39.9805 26.2022 39.88 28.0526C39.8454 29.754 39.5108 31.3677 38.9256 32.8632L38.9586 32.7654C38.4379 34.0505 37.7582 35.1415 36.6583 36.212C35.5374 37.3029 34.418 37.9645 33.0975 38.4712C31.837 38.9576 30.377 39.2701 28.2552 39.3665C26.3541 39.4643 25.5948 39.4833 21.5928 39.4833H18.4117C14.4097 39.4833 13.67 39.4643 11.7493 39.3665C10.0011 39.3329 8.34302 39.0072 6.80647 38.4376L6.907 38.4698C5.522 37.9542 4.34107 37.1934 3.36722 36.2309L3.36572 36.2295C2.36636 35.2773 1.57707 34.1206 1.06689 32.8281L1.04438 32.7624C0.493679 31.3663 0.159058 29.751 0.124545 28.0642V28.0496C0.0450162 26.5279 0 24.7447 0 22.9528C0 22.6227 0.00150022 22.2926 0.00450131 21.964V22.0137V18.0224C0.00450131 14.5173 0.0450162 13.7769 0.124545 11.9864C0.225082 9.92284 0.564204 8.50038 1.04438 7.27362C1.56507 5.98845 2.24481 4.89751 3.36572 3.82702C4.33357 2.85292 5.5175 2.08912 6.84248 1.60864L6.907 1.58819C8.34002 1.04637 9.99812 0.713394 11.7313 0.673963H11.7493C13.5904 0.59656 14.3497 0.557129 17.951 0.557129H22.0535ZM22.094 4.06215H17.912C14.4502 4.06215 13.7105 4.10158 11.9098 4.17898C9.96961 4.25639 8.90873 4.56892 8.20798 4.84056C7.26713 5.19106 6.60689 5.61896 5.90764 6.30098C5.20839 6.983 4.76723 7.62559 4.4071 8.53981C4.1475 9.22183 3.80688 10.2529 3.72735 12.1617C3.64782 13.9142 3.60731 14.6152 3.60731 18.0034V22.0531C3.60731 25.4413 3.64782 26.1423 3.72735 27.8948C3.80688 29.7832 4.128 30.8157 4.4071 31.4977C4.76723 32.4134 5.20689 33.056 5.90764 33.7365C6.6084 34.4171 7.26864 34.8465 8.20798 35.197C8.90873 35.4701 9.96811 35.7811 11.9293 35.8585C13.8695 35.9564 14.5703 35.9754 18.8918 35.9754H21.1127C25.4537 35.9754 26.135 35.9564 28.0947 35.8585C30.0349 35.7811 31.0958 35.4686 31.7965 35.197C32.7374 34.8465 33.3976 34.4185 34.0969 33.7365C34.7961 33.0545 35.2373 32.4119 35.5974 31.4977C35.878 30.8157 36.1976 29.7846 36.2772 27.8948C36.3777 25.9861 36.3972 25.3245 36.3972 21.0995V18.957C36.3972 14.732 36.3777 14.05 36.2772 12.1412C36.1976 10.2529 35.8765 9.22037 35.5974 8.53835C35.2583 7.66064 34.7466 6.91144 34.0984 6.30098L34.0969 6.29952C33.4666 5.66716 32.6984 5.16915 31.8385 4.85224L31.7965 4.8391C30.6981 4.43602 29.4287 4.19505 28.1022 4.17752H28.0947C26.5521 4.10158 24.747 4.05777 22.9298 4.05777C22.6357 4.05777 22.3416 4.05923 22.0475 4.06069H22.0925L22.094 4.06215ZM20.0128 10.0207C25.6863 10.0207 30.287 14.4969 30.287 20.0202C30.287 25.5435 25.6878 30.0197 20.0128 30.0197C14.3392 30.0197 9.73853 25.5435 9.73853 20.0202C9.73853 14.4969 14.3377 10.0207 20.0128 10.0207ZM20.0128 13.5257C16.3274 13.5257 13.3398 16.4334 13.3398 20.0202C13.3398 23.607 16.3274 26.5147 20.0128 26.5147C23.6981 26.5147 26.6857 23.607 26.6857 20.0202C26.6857 16.4334 23.6981 13.5257 20.0128 13.5257ZM30.6771 7.29407C32.0036 7.29407 33.078 8.33974 33.078 9.63075C33.078 10.9218 32.0036 11.9674 30.6771 11.9674C29.3506 11.9674 28.2763 10.9218 28.2763 9.63075C28.2763 8.33974 29.3506 7.29407 30.6771 7.29407Z" fill="#988D6B"/>
</svg>
